# xmcd
#
# Track frame offsets:
#	150
#	17902
#	39313
#	54998
#	73327
#	86111
#	101385
#	116719
#	132343
#	150003
#	168946
#	186799
#	205849
#	220580
#	237404
#	253399
#
# Disc length: 3577 seconds
#
# Revision: 1
# Processed by: cddbd v1.5.1PL0 Copyright (c) Steve Scherf et al.
# Submitted via: EasyCDDAExtractor 7.0.3.1
#
DISCID=da0df710
DTITLE=Various Artist - DJ PROMOTION BLACK 16
DYEAR=2005
DGENRE=Hip-Hop
TTITLE0=AKON - LONELY
TTITLE1=PAPA A.P. - GASOLINA
TTITLE2=NELLY  - N DEY SAY
TTITLE3=THE BLACK EYED PEAS - DON'T PHUNK WITH MY HEART
TTITLE4=VERBALICIOUS - DON'T PLAY NICE
TTITLE5=AMEL BENT - MY PHILOSOPHIE
TTITLE6=CIARA - 1,2 STEP
TTITLE7=THE GAME FT 50 CENT - HATE IT OR LOVE IT
TTITLE8=J-KWON FT. PETEY PABLO and EBONY EYEZ - GET XXX'D
TTITLE9=EMINEM - MOCKINGBIRD
TTITLE10=SNOOP DOGG - SINGS
TTITLE11=STEVIE WONDER  - SO WHAT THE FUSS
TTITLE12=FISS ENVEE - KRYMINALNY BLUES
TTITLE13=VAVAMUFFIN - JAH JEST PREZYDENTEM
TTITLE14=PRAS MICHEL - HAVEN'T FOUND 
TTITLE15=JEDEN OSIEM L. - PYTAM KIEDY
EXTD=
EXTT0=
EXTT1=
EXTT2=
EXTT3=
EXTT4=
EXTT5=
EXTT6=
EXTT7=
EXTT8=
EXTT9=
EXTT10=
EXTT11=
EXTT12=
EXTT13=
EXTT14=
EXTT15=
PLAYORDER=
